<svg xmlns="http://www.w3.org/2000/svg" viewBox="79.51 191.81 263.57 188.24"><g id="freepik--Folder--inject-2"><path d="M186.76,196.34l14.36,17.16A12.66,12.66,0,0,0,211.75,218l63.79-4.69a18,18,0,0,1,19.27,16.62l8.67,117.83A18,18,0,0,1,286.86,367L110,380a18,18,0,0,1-19.27-16.63L79.54,211.63A12.64,12.64,0,0,1,91.22,198.1l84.92-6.26A12.63,12.63,0,0,1,186.76,196.34Z" style="fill:#407BFF"/><g style="opacity:0.30000000000000004"><path d="M186.76,196.34l14.36,17.16A12.66,12.66,0,0,0,211.75,218l63.79-4.69a18,18,0,0,1,19.27,16.62l8.67,117.83A18,18,0,0,1,286.86,367L110,380a18,18,0,0,1-19.27-16.63L79.54,211.63A12.64,12.64,0,0,1,91.22,198.1l84.92-6.26A12.63,12.63,0,0,1,186.76,196.34Z"/></g><rect x="91.77" y="204.33" width="65.69" height="5.04" rx="2.49" transform="translate(-14.85 9.71) rotate(-4.21)" style="fill:#fff"/><rect x="92.52" y="214.74" width="56.57" height="5.04" rx="2.49" transform="matrix(1, -0.07, 0.07, 1, -15.63, 9.46)" style="fill:#fff"/><path d="M292.67,360.31,106.86,374a8.51,8.51,0,0,1-9.09-7.84L89.34,251.59a8.5,8.5,0,0,1,7.84-9.09L283,228.82a8.5,8.5,0,0,1,9.09,7.84l8.44,114.56A8.52,8.52,0,0,1,292.67,360.31Z" style="fill:#e0e0e0"/><rect x="95.94" y="235.38" width="200.63" height="131.85" rx="8.49" transform="translate(-21.6 15.23) rotate(-4.21)" style="fill:#fff"/><polygon points="115.52 373.36 153.86 370.53 119.15 256.37 115.52 373.36" style="fill:#f5f5f5"/><path d="M328.81,328.33,145.09,359.26a8.53,8.53,0,0,1-9.79-7L116.23,239a8.52,8.52,0,0,1,7-9.78l183.72-30.93a8.52,8.52,0,0,1,9.79,7l19.07,113.27A8.53,8.53,0,0,1,328.81,328.33Z" style="fill:#fff"/><rect x="127.01" y="212.64" width="200.63" height="131.85" rx="8.49" transform="translate(-43.09 41.61) rotate(-9.56)" style="fill:#407BFF;opacity:0.30000000000000004"/><path d="M304.62,222.69,136,251.07a3.76,3.76,0,0,1-4.32-3.07l-.94-5.63a3.74,3.74,0,0,1,3.07-4.31l168.62-28.39a3.75,3.75,0,0,1,4.32,3.07l.95,5.63A3.77,3.77,0,0,1,304.62,222.69Z" style="fill:#407BFF;opacity:0.2"/><path d="M306.44,232.82,137.58,261.25a3.63,3.63,0,0,0-3,4.18l.83,5a3.63,3.63,0,0,0,4.18,3l168.86-28.43a3.63,3.63,0,0,0,3-4.17l-.84-5A3.64,3.64,0,0,0,306.44,232.82Z" style="fill:#407BFF;opacity:0.2"/><path d="M329.07,366.51l-.36-.94a20.52,20.52,0,0,0,6.3-3.8l.66.75A21.47,21.47,0,0,1,329.07,366.51Z" style="fill:#407BFF"/><path d="M340.77,355.92l-.89-.45a20.57,20.57,0,0,0,2.14-10.8l-1.1-15,1-.07,1.1,15A21.61,21.61,0,0,1,340.77,355.92Z" style="fill:#407BFF"/><path d="M322.69,364.37,128.17,378.69h0L110,380a18.23,18.23,0,0,0,16.84-19.52L121,280.76a12,12,0,0,1,11.12-12.89L320.76,254a12,12,0,0,1,12.9,11.12l5.87,79.77A18.22,18.22,0,0,1,322.69,364.37Z" style="fill:#407BFF"/></g></svg>